<svg width="25" height="26" viewBox="0 0 25 26" fill="none" xmlns="http://www.w3.org/2000/svg">
<g clip-path="url(#clip0_159_862)">
<path d="M21.875 7.79167H18.6104C19.3324 7.13341 19.9045 6.32772 20.288 5.42913C20.6715 4.53054 20.8575 3.56004 20.8333 2.58333H18.75C18.75 5.58437 16.6969 7.06979 14.425 7.58333C15.1072 6.36646 15.5166 5.01582 15.625 3.625C15.625 2.7962 15.2958 2.00134 14.7097 1.41529C14.1237 0.82924 13.3288 0.5 12.5 0.5C11.6712 0.5 10.8763 0.82924 10.2903 1.41529C9.70424 2.00134 9.375 2.7962 9.375 3.625C9.48338 5.01582 9.89284 6.36646 10.575 7.58333C8.30313 7.06979 6.25 5.58437 6.25 2.58333H4.16667C4.14249 3.56004 4.32846 4.53054 4.71198 5.42913C5.09549 6.32772 5.66761 7.13341 6.38958 7.79167H3.125C2.2962 7.79167 1.50134 8.12091 0.915291 8.70696C0.32924 9.29301 0 10.0879 0 10.9167L0 15.0833H2.08333V25.5H22.9167V15.0833H25V10.9167C25 10.0879 24.6708 9.29301 24.0847 8.70696C23.4987 8.12091 22.7038 7.79167 21.875 7.79167ZM12.5 2.58333C12.7763 2.58333 13.0412 2.69308 13.2366 2.88843C13.4319 3.08378 13.5417 3.34873 13.5417 3.625C13.4159 4.73211 13.0612 5.80095 12.5 6.76354C11.9388 5.80095 11.5841 4.73211 11.4583 3.625C11.4583 3.34873 11.5681 3.08378 11.7634 2.88843C11.9588 2.69308 12.2237 2.58333 12.5 2.58333ZM2.08333 10.9167C2.08333 10.6404 2.19308 10.3754 2.38843 10.1801C2.58378 9.98475 2.84873 9.875 3.125 9.875H11.4583V13H2.08333V10.9167ZM4.16667 15.0833H11.4583V23.4167H4.16667V15.0833ZM20.8333 23.4167H13.5417V15.0833H20.8333V23.4167ZM22.9167 13H13.5417V9.875H21.875C22.1513 9.875 22.4162 9.98475 22.6116 10.1801C22.8069 10.3754 22.9167 10.6404 22.9167 10.9167V13Z" fill="white"/>
</g>
<defs>
<clipPath id="clip0_159_862">
<rect width="25" height="25" fill="white" transform="translate(0 0.5)"/>
</clipPath>
</defs>
</svg>
