<svg aria-hidden="true" xmlns="http://www.w3.org/2000/svg" xmlns:xlink="http://www.w3.org/1999/xlink"><symbol viewBox="0 0 512 512" fill="none" id="close" xmlns="http://www.w3.org/2000/svg">
<g clip-path="url(#aclip0_1644_66)">
<path d="M7.2 1.99999C2.6 4.79999 0 9.59999 0 15.3C0 18 0.5 21.1 1.1 22.3C1.7 23.5 54.2 76.6 117.9 140.2L233.5 256L117.9 371.7C54.2 435.4 1.7 488.5 1.1 489.7C0.5 490.9 0 494 0 496.7C0 505.7 6.3 512 15.3 512C18 512 21.1 511.5 22.3 510.9C23.5 510.3 76.6 457.8 140.3 394.1L256 278.5L371.8 394.1C435.4 457.8 488.5 510.3 489.7 510.9C490.9 511.5 494 512 496.7 512C505.7 512 512 505.7 512 496.7C512 494 511.5 490.9 510.9 489.7C510.3 488.5 457.8 435.4 394.1 371.7L278.5 256L394.1 140.2C457.8 76.6 510.3 23.5 510.9 22.3C511.5 21.1 512 18 512 15.3C512 6.29999 505.7 -7.62939e-06 496.7 -7.62939e-06C494 -7.62939e-06 490.9 0.499992 489.7 1.09999C488.5 1.69999 435.4 54.2 371.8 117.9L256 233.5L140.3 117.9C76.6 54.2 23.5 1.69999 22.3 1.09999C18.8 -0.700008 10.9 -0.200008 7.2 1.99999Z" fill="currentColor"/>
</g>
<defs>
<clipPath id="aclip0_1644_66">
<rect width="512" height="512" fill="currentColor"/>
</clipPath>
</defs>
</symbol><symbol viewBox="0 0 20 21" fill="none" id="passwordVisible" xmlns="http://www.w3.org/2000/svg">
<path d="M3.07422 2.04829C2.8125 2.18501 2.68359 2.50141 2.77344 2.79829C2.8125 2.93501 3.03125 3.1772 4.18359 4.33345L5.55078 5.70454L5.04688 6.02095C3.48828 7.00142 2.12891 8.18501 0.992188 9.54438C0.644531 9.95845 0.625 9.99751 0.625 10.2592C0.625 10.4233 0.648438 10.5053 0.726562 10.6225C1.08594 11.1538 2.35547 12.4624 3.18359 13.1538C5.48047 15.0717 7.73828 16.0288 9.94531 16.0288C11.332 16.0249 12.6797 15.6967 13.9727 15.0483L14.5859 14.7397L15.9375 16.0834C17.125 17.2709 17.3047 17.435 17.4531 17.4741C17.7656 17.5561 18.0664 17.4233 18.1992 17.1459C18.2461 17.0561 18.2812 16.9428 18.2812 16.8999C18.2812 16.5952 18.5547 16.8764 11 9.31392C6.71875 5.02876 3.71875 2.0522 3.64453 2.02095C3.46875 1.94673 3.25 1.95454 3.07422 2.04829ZM7.87109 8.46235C7.625 8.73188 7.42578 9.09907 7.30078 9.50532C7.18359 9.88423 7.17188 10.5952 7.28125 10.9897C7.54297 11.9545 8.28906 12.7006 9.25781 12.9663C9.60547 13.06 10.3203 13.0639 10.6641 12.9702C11.0469 12.8686 11.5156 12.6225 11.7812 12.3803L12.0195 12.1655L12.8125 12.9624C13.25 13.3999 13.6016 13.767 13.5938 13.7749C13.582 13.7866 13.4258 13.8686 13.2461 13.9584C11.9102 14.6264 10.2852 14.892 8.94531 14.6655C7.26953 14.3764 5.52734 13.4545 3.76953 11.9272C3.35938 11.5717 2.10938 10.31 2.10938 10.2553C2.10938 10.1928 3.01562 9.23579 3.44531 8.85298C4.28516 8.09517 5.00781 7.56001 5.9375 6.99751L6.50391 6.65376L7.29297 7.44282L8.08203 8.22798L7.87109 8.46235ZM10.9844 11.353C10.9258 11.4116 10.7656 11.517 10.625 11.5874C10.3945 11.7006 10.3398 11.7124 10 11.7124C9.67969 11.7124 9.59766 11.6967 9.40625 11.6069C9.09375 11.4624 8.8125 11.1889 8.66016 10.8764C8.54688 10.642 8.53516 10.5874 8.53516 10.2475C8.53516 9.9311 8.55078 9.84517 8.63672 9.66157C8.69141 9.54048 8.79688 9.37642 8.86719 9.29438L8.99609 9.14985L10.043 10.1928L11.0938 11.2397L10.9844 11.353Z" fill="currentColor"/>
<path d="M9.00358 4.50922C8.87468 4.52875 8.67546 4.5639 8.56218 4.58734C7.93718 4.71625 7.81999 5.52094 8.3903 5.79828C8.55827 5.88031 8.56608 5.88031 9.02702 5.81781C11.32 5.48969 13.6208 6.34906 16.0895 8.44281C16.5505 8.83344 17.8903 10.1772 17.8903 10.2475C17.8903 10.3139 16.6208 11.5912 16.1716 11.9741C15.5856 12.478 15.488 12.6928 15.6755 13.06C15.7926 13.2944 15.9723 13.4116 16.2184 13.4116C16.4684 13.4116 16.5622 13.3569 17.0622 12.935C17.8044 12.2983 19.1559 10.8686 19.3317 10.5327C19.3551 10.4858 19.3747 10.353 19.3747 10.2358C19.3747 10.0717 19.3512 9.98969 19.2731 9.8725C19.0739 9.57562 18.4958 8.93109 17.8903 8.33344C15.8395 6.29437 13.6012 4.99359 11.4333 4.57953C11.0856 4.51312 10.8161 4.49359 10.1169 4.48187C9.63249 4.47797 9.13249 4.48969 9.00358 4.50922Z" fill="currentColor"/>
</symbol></svg>