<svg width="25" height="25" viewBox="0 0 25 25" fill="none" xmlns="http://www.w3.org/2000/svg">
<g clip-path="url(#clip0_161_976)">
<path d="M14.0628 19.7919H10.9378V18.9732C10.9378 16.5034 12.3836 14.3461 15.0096 12.8982C16.994 11.8044 18.0211 9.6367 17.6242 7.37628C17.2576 5.28982 15.544 3.57628 13.4576 3.20961C11.8815 2.93357 10.3544 3.33565 9.15443 4.3419C7.97109 5.33565 7.29297 6.79086 7.29297 8.33357H4.16797C4.16797 5.86482 5.25339 3.53774 7.14505 1.9492C9.03464 0.361696 11.5357 -0.29872 13.9971 0.131488C17.3555 0.721071 20.1128 3.47836 20.7023 6.8367C21.3242 10.3773 19.6419 13.9138 16.518 15.6357C14.8888 16.5336 14.0628 17.6554 14.0628 18.9732V19.7919ZM14.0628 21.8752H10.9378V25.0002H14.0628V21.8752Z" fill="#7B04DF"/>
</g>
<defs>
<clipPath id="clip0_161_976">
<rect width="25" height="25" fill="white"/>
</clipPath>
</defs>
</svg>
