<svg width="25" height="25" viewBox="0 0 25 25" fill="none" xmlns="http://www.w3.org/2000/svg">
<path d="M23.1541 5.16115C23.0662 5.21486 20.7176 7.86623 17.5047 11.5479C14.4823 15.0147 11.992 17.8516 11.9676 17.8613C11.9481 17.8662 10.7371 16.5479 9.28207 14.9317C7.45101 12.9004 6.57211 11.9531 6.43051 11.875C5.90804 11.5821 5.27328 11.9629 5.27328 12.5684C5.27328 12.7344 5.30746 12.8711 5.37093 12.9785C5.42465 13.0664 6.16195 13.9063 7.00668 14.8438L8.53988 16.543L7.94906 17.2217L7.35824 17.9053L5.08773 15.3858C2.01156 11.9727 1.95297 11.9092 1.7723 11.836C1.42562 11.6895 0.966639 11.8311 0.776209 12.1436C0.63949 12.3682 0.629725 12.7735 0.76156 12.9785C0.942224 13.2617 6.87484 19.8047 7.00179 19.8633C7.19222 19.9463 7.5682 19.9365 7.74886 19.834C7.83676 19.7901 8.29086 19.3067 8.76449 18.7647C9.23812 18.2178 9.62875 17.7735 9.63851 17.7735C9.6434 17.7735 10.0536 18.2227 10.5467 18.7744C11.0545 19.336 11.5135 19.8047 11.6014 19.8487C11.7869 19.9365 12.0799 19.9414 12.2948 19.8682C12.4119 19.8291 13.911 18.1397 18.3153 13.0957C21.5379 9.39455 24.2137 6.30861 24.2528 6.23049C24.4334 5.88381 24.3065 5.41018 23.9744 5.19045C23.7743 5.04885 23.3836 5.03908 23.1541 5.16115Z" fill="#7B04DF"/>
<path d="M17.9395 5.85457C17.7881 5.94734 11.1035 13.5645 10.9326 13.8429C10.8691 13.9405 10.8398 14.0821 10.8398 14.2628C10.8398 14.585 10.9668 14.8096 11.2305 14.9464C11.4258 15.0538 11.7969 15.0684 11.9873 14.9805C12.124 14.9171 18.9111 7.17293 19.0576 6.91902C19.2383 6.58699 19.1211 6.09871 18.8037 5.87898C18.5791 5.72762 18.1689 5.71785 17.9395 5.85457Z" fill="#7B04DF"/>
</svg>
