<svg width="26" height="26" viewBox="0 0 26 26" fill="none" xmlns="http://www.w3.org/2000/svg">
<path d="M23.6541 5.66115C23.5662 5.71486 21.2176 8.36623 18.0047 12.0479C14.9823 15.5147 12.492 18.3516 12.4676 18.3613C12.4481 18.3662 11.2371 17.0479 9.78207 15.4317C7.95101 13.4004 7.07211 12.4531 6.93051 12.375C6.40804 12.0821 5.77328 12.4629 5.77328 13.0684C5.77328 13.2344 5.80746 13.3711 5.87094 13.4785C5.92465 13.5664 6.66195 14.4063 7.50668 15.3438L9.03988 17.043L8.44906 17.7217L7.85824 18.4053L5.58773 15.8858C2.51156 12.4727 2.45297 12.4092 2.2723 12.336C1.92562 12.1895 1.46664 12.3311 1.27621 12.6436C1.13949 12.8682 1.12972 13.2735 1.26156 13.4785C1.44222 13.7617 7.37484 20.3047 7.50179 20.3633C7.69222 20.4463 8.0682 20.4365 8.24886 20.334C8.33676 20.2901 8.79086 19.8067 9.26449 19.2647C9.73812 18.7178 10.1287 18.2735 10.1385 18.2735C10.1434 18.2735 10.5536 18.7227 11.0467 19.2744C11.5545 19.836 12.0135 20.3047 12.1014 20.3487C12.2869 20.4365 12.5799 20.4414 12.7948 20.3682C12.9119 20.3291 14.411 18.6397 18.8153 13.5957C22.0379 9.89455 24.7137 6.80861 24.7528 6.73049C24.9334 6.38381 24.8065 5.91018 24.4744 5.69045C24.2743 5.54885 23.8836 5.53908 23.6541 5.66115Z" fill="white"/>
<path d="M18.4395 6.35457C18.2881 6.44734 11.6035 14.0645 11.4326 14.3429C11.3691 14.4405 11.3398 14.5821 11.3398 14.7628C11.3398 15.085 11.4668 15.3096 11.7305 15.4464C11.9258 15.5538 12.2969 15.5684 12.4873 15.4805C12.624 15.4171 19.4111 7.67293 19.5576 7.41902C19.7383 7.08699 19.6211 6.59871 19.3037 6.37898C19.0791 6.22762 18.6689 6.21785 18.4395 6.35457Z" fill="white"/>
</svg>
