<svg width="76" height="75" viewBox="0 0 76 75" fill="none" xmlns="http://www.w3.org/2000/svg">
<g clip-path="url(#clip0_159_689)">
<path d="M75.3238 37.6654C75.2417 58.3792 58.3896 75.0825 37.7473 74.9996C17.1049 74.9171 0.417899 58.0483 0.500304 37.3346C0.582709 16.6209 17.4345 -0.0823837 38.0769 0.000305693C58.7604 0.0829954 75.4063 16.9517 75.3238 37.6654Z" fill="#221F1F"/>
<path d="M51.3865 56.0638C47.4311 63.175 42.5278 69.005 37.048 68.8809C33.6281 68.798 30.3732 67.5163 27.4066 65.4905C28.3542 63.7542 34.3286 55.0717 51.3865 56.0638ZM74.3361 37.6655C74.2536 57.8005 57.8553 74.09 37.7484 73.9663C17.6416 73.8834 1.49023 57.4696 1.49023 37.3347C1.49023 24.2698 8.00021 14.8845 14.1806 9.84045C21.7618 3.6801 26.9121 8.39341 28.725 11.9904C28.519 10.4607 27.901 6.07812 26.2117 2.9359C29.9199 1.65421 33.9165 0.951347 38.078 0.992693C58.1848 1.11673 74.4186 17.4892 74.3361 37.6655ZM35.9767 16.6624C41.2506 13.0654 50.3565 11.0808 55.1769 18.6056C52.2515 1.40614 39.6025 11.2875 35.9767 16.6624ZM28.6426 32.9108C29.7551 31.6705 31.0324 30.4302 32.5157 29.3139C39.1081 24.2285 46.3186 22.9467 48.6669 26.5024C49.5736 27.8668 49.6148 29.7687 48.9144 31.8359C51.2628 27.9495 52.0044 24.3525 50.5623 22.368C48.1315 19.0604 40.5914 21.3343 33.7105 27.4533C31.6916 29.1485 30.0023 31.0503 28.6426 32.9108ZM17.1472 35.9704C20.4845 36.5905 24.1104 32.332 25.2228 26.3784C26.3353 20.4247 24.5636 15.1326 21.2262 14.4711C17.8888 13.8509 14.263 18.1094 13.1505 24.0631C12.038 29.9754 13.8098 35.3088 17.1472 35.9704ZM63.5411 28.7764C31.6092 50.2342 9.56592 39.3606 9.56592 39.3606C9.2363 46.8025 21.9678 69.6663 37.1303 69.9559C52.334 70.245 63.5411 28.7764 63.5411 28.7764ZM14.057 24.1871C15.087 18.7296 18.2184 14.7605 21.0614 15.3393C23.9044 15.8768 25.3877 20.7555 24.3988 26.213C23.3688 31.6705 20.2373 35.6396 17.3944 35.0608C14.5102 34.5233 13.0269 29.6446 14.057 24.1871ZM20.1138 28.8177C21.391 29.1071 22.7919 27.536 23.2863 25.3447C23.7808 23.1535 23.1215 21.1276 21.8443 20.8795C20.979 20.6728 20.0725 21.3343 19.4133 22.4506C19.9901 22.74 20.2785 23.4842 19.9901 24.1044C19.7429 24.6832 19.1661 24.9727 18.5893 24.8486C18.342 26.7918 18.9601 28.5283 20.1138 28.8177Z" fill="#05BC52"/>
</g>
<defs>
<clipPath id="clip0_159_689">
<rect width="75" height="75" fill="white" transform="translate(0.5)"/>
</clipPath>
</defs>
</svg>
