<svg width="61" height="60" viewBox="0 0 61 60" fill="none" xmlns="http://www.w3.org/2000/svg">
<g clip-path="url(#clip0_159_752)">
<path d="M26.9258 0.140625C21.6641 0.726562 16.1094 3.04688 11.8203 6.42188C10.625 7.35938 8.11719 9.84375 7.12109 11.0859C4.37891 14.4727 2.35156 18.5625 1.32031 22.7578C0.652344 25.4766 0.558594 26.3789 0.558594 29.9414C0.558594 33.3867 0.628906 34.125 1.16797 36.5625C3.26562 46.0898 10.2031 54.293 19.2148 57.8789C22.9883 59.3789 26.3047 60 30.5 60C35.4453 60 39.6992 59.0156 43.9062 56.9062C47.0938 55.3008 49.5312 53.5078 52.0625 50.9062C56.668 46.1602 59.5156 40.2422 60.3242 33.75C60.5586 31.8398 60.5586 28.1602 60.3242 26.25C59.6562 20.8945 57.4531 15.6211 54.0898 11.332C53.1055 10.0781 49.9297 6.97266 48.6523 6.01172C44.4102 2.83594 39.4297 0.820312 34.25 0.175781C32.6445 -0.0234375 28.5195 -0.046875 26.9258 0.140625ZM32.4336 3.67969C38.6211 3.97266 45.0547 7.01953 49.6133 11.8125C54.3711 16.8047 56.8672 23.0742 56.8672 30C56.8672 35.8945 55.0977 41.1914 51.5586 45.9258C50.4805 47.3672 47.8672 49.9805 46.4258 51.0586C42.6523 53.8828 38.1406 55.6992 33.5586 56.25C32.1523 56.4141 28.8477 56.4141 27.4883 56.25C22.7891 55.6758 18.3711 53.8945 14.5742 51.0586C13.1328 49.9805 10.5195 47.3672 9.44141 45.9258C6.57031 42.0938 4.78906 37.6289 4.23828 32.9062C4.01562 30.9492 4.15625 27.1055 4.53125 25.1602C6.60547 14.332 15.125 5.89453 25.9297 3.98438C27.3008 3.73828 29.9961 3.52734 30.793 3.59766C30.9922 3.60938 31.7305 3.64453 32.4336 3.67969Z" fill="#7B04DF"/>
<path d="M19.6138 11.5547C17.727 11.9531 16.0864 13.3477 15.3833 15.1172C14.352 17.7305 15.313 20.7773 17.6567 22.2891C18.6411 22.9219 19.6372 23.2031 20.8794 23.2031C22.6138 23.2031 23.8911 22.6875 25.0747 21.5039C26.3989 20.1797 27.0083 18.3633 26.7505 16.5352C26.5395 15.0234 25.977 13.9688 24.8286 12.9141C24.0317 12.1992 23.2114 11.7773 22.1216 11.543C21.1255 11.332 20.5981 11.332 19.6138 11.5547ZM21.5356 15.1289C22.1919 15.3047 22.9302 16.1016 23.106 16.8047C23.4575 18.2227 22.3794 19.5703 20.8911 19.5703C19.8013 19.5703 18.9575 18.9023 18.6645 17.8008C18.395 16.8281 19.1333 15.5273 20.1294 15.1758C20.7036 14.9766 20.938 14.9648 21.5356 15.1289Z" fill="#7B04DF"/>
<path d="M38.8325 11.5547C36.9458 11.9531 35.3052 13.3477 34.602 15.1172C33.5708 17.7305 34.5317 20.7773 36.8755 22.2891C38.7974 23.5312 41.4224 23.5312 43.3442 22.2891C45.2427 21.0586 46.2856 18.7734 45.9692 16.5352C45.7583 15.0234 45.1958 13.9688 44.0474 12.9141C43.2505 12.1992 42.4302 11.7773 41.3403 11.543C40.3442 11.332 39.8169 11.332 38.8325 11.5547ZM40.7544 15.1289C41.4106 15.3047 42.1489 16.1016 42.3247 16.8047C42.6763 18.2227 41.5981 19.5703 40.1099 19.5703C39.0083 19.5703 38.1763 18.9023 37.8716 17.7891C37.6138 16.793 38.3169 15.5391 39.3599 15.1758C39.9224 14.9766 40.1567 14.9648 40.7544 15.1289Z" fill="#7B04DF"/>
<path d="M28.332 28.3242C26.9609 28.5117 24.9922 29.1328 23.6445 29.8008C20.7734 31.2188 18.0898 33.9141 16.7305 36.7383C15.6289 39 15.2773 40.5 15.1836 43.2656L15.1133 45.3516H30.5H45.8867L45.8164 43.2656C45.7695 41.4609 45.7109 41.0156 45.4062 39.8203C44.668 36.9609 43.4492 34.8516 41.3516 32.7422C38.2344 29.625 34.7773 28.2188 30.3945 28.2539C29.457 28.2656 28.5312 28.3008 28.332 28.3242ZM31.8594 31.9219C32.9258 32.0039 34.4961 32.4609 35.5742 33C38.9727 34.7109 41.2227 37.6289 42.0312 41.3906L42.1016 41.7188H30.5H18.8984L18.9688 41.3906C19.7891 37.6055 22.0391 34.6758 25.4023 33.0352C26.0469 32.7305 26.9844 32.3555 27.5 32.2148C28.3906 31.9805 30.1484 31.7695 30.7344 31.8281C30.8984 31.8516 31.4023 31.8867 31.8594 31.9219Z" fill="#7B04DF"/>
</g>
<defs>
<clipPath id="clip0_159_752">
<rect width="60" height="60" fill="white" transform="translate(0.5)"/>
</clipPath>
</defs>
</svg>
