<svg width="61" height="60" viewBox="0 0 61 60" fill="none" xmlns="http://www.w3.org/2000/svg">
<g clip-path="url(#clip0_159_772)">
<path d="M56.1055 3.99619C55.2734 4.1954 3.04297 21.4337 2.53906 21.6681C1.26172 22.2657 0.5 23.4845 0.5 24.9142C0.5 26.1095 0.757812 26.7657 1.54297 27.5392C2.1875 28.172 2.35156 28.2423 8.92578 31.1134L15.6641 34.0548L17.6328 43.172C18.7109 48.1876 19.6484 52.4649 19.7188 52.6876C19.9062 53.2384 20.2695 53.6485 20.7383 53.8478C21.2539 54.0704 21.6055 54.0704 22.0977 53.8595C22.3086 53.7774 24.7812 51.9845 27.6055 49.8751L32.7266 46.0431L38.5508 50.8126C41.75 53.4376 44.5508 55.6524 44.7734 55.7462C45.8164 56.1798 47.1289 56.1563 48.0781 55.6642C48.5469 55.4181 49.3789 54.5743 49.6367 54.0587C49.7422 53.8712 52.2266 43.5001 55.1562 30.9962C59.1758 13.9337 60.5 8.10947 60.5 7.55869C60.5 6.55087 60.2305 5.84775 59.5508 5.10947C58.6719 4.14853 57.3008 3.70322 56.1055 3.99619ZM56.832 7.87509C54.2891 18.8321 46.3555 52.3829 46.3203 52.3829C46.2734 52.3829 28.6719 38.0157 28.2969 37.6759C28.2734 37.6642 32.457 33.2579 37.5781 27.9024C47.5742 17.4493 47.2578 17.8126 47.0703 16.8048C46.9766 16.3126 46.5547 15.7618 46.0508 15.5157C45.5938 15.2696 44.8672 15.3517 44.1875 15.7032C43.9062 15.8438 37.7188 19.2774 30.418 23.3321L17.1523 30.7032L10.6484 27.8673C7.07422 26.297 4.17969 24.9962 4.20312 24.961C4.28516 24.879 56.5273 7.64072 56.7383 7.629C56.8438 7.61728 56.8672 7.69931 56.832 7.87509ZM29.7031 30.8321L23.9727 36.8204L23.6094 38.004C23.4102 38.6602 22.918 40.3595 22.5195 41.7774C22.1211 43.1954 21.7578 44.3907 21.7227 44.4376C21.6875 44.4845 21.125 42.0938 20.4922 39.129C19.8594 36.1642 19.3672 33.7149 19.4023 33.6798C19.5078 33.5743 35.2461 24.8556 35.3398 24.8438C35.3867 24.8438 32.8555 27.5392 29.7031 30.8321ZM28.3672 42.4806C29.1523 43.1134 29.7617 43.6759 29.7031 43.7227C29.293 44.086 24.8398 47.3556 24.8047 47.3204C24.7812 47.2853 25.168 45.8673 25.6602 44.1446C26.457 41.3321 26.5625 41.0392 26.7383 41.1681C26.8555 41.2501 27.582 41.836 28.3672 42.4806Z" fill="#7B04DF"/>
</g>
<defs>
<clipPath id="clip0_159_772">
<rect width="60" height="60" fill="white" transform="translate(0.5)"/>
</clipPath>
</defs>
</svg>
