<svg width="61" height="60" viewBox="0 0 61 60" fill="none" xmlns="http://www.w3.org/2000/svg">
<g clip-path="url(#clip0_159_764)">
<path d="M60.5 30C60.5 30.663 60.2366 31.2989 59.7678 31.7678C59.2989 32.2366 58.663 32.5 58 32.5C57.337 32.5 56.7011 32.2366 56.2322 31.7678C55.7634 31.2989 55.5 30.663 55.5 30C55.4927 23.3718 52.8565 17.0172 48.1696 12.3304C43.4828 7.64354 37.1282 5.00728 30.5 5C29.837 5 29.2011 4.73661 28.7322 4.26777C28.2634 3.79893 28 3.16304 28 2.5C28 1.83696 28.2634 1.20107 28.7322 0.732233C29.2011 0.263392 29.837 0 30.5 0C38.4539 0.0086027 46.0795 3.17207 51.7037 8.7963C57.3279 14.4205 60.4914 22.0461 60.5 30ZM40.5 32.5C41.163 32.5 41.7989 32.2366 42.2678 31.7678C42.7366 31.2989 43 30.663 43 30C43 29.337 42.7366 28.7011 42.2678 28.2322C41.7989 27.7634 41.163 27.5 40.5 27.5H34.8075C34.3718 26.7511 33.7489 26.1282 33 25.6925V17.5C33 16.837 32.7366 16.2011 32.2678 15.7322C31.7989 15.2634 31.163 15 30.5 15C29.837 15 29.2011 15.2634 28.7322 15.7322C28.2634 16.2011 28 16.837 28 17.5V25.6925C27.3369 26.0743 26.7706 26.6036 26.345 27.2394C25.9194 27.8752 25.6458 28.6005 25.5455 29.359C25.4452 30.1175 25.5208 30.8889 25.7665 31.6135C26.0123 32.3381 26.4215 32.9964 26.9625 33.5375C27.5036 34.0785 28.1619 34.4877 28.8865 34.7335C29.6111 34.9792 30.3825 35.0548 31.141 34.9545C31.8995 34.8542 32.6248 34.5806 33.2606 34.155C33.8964 33.7294 34.4257 33.1631 34.8075 32.5H40.5ZM5.0675 16.96C4.57305 16.96 4.0897 17.1066 3.67858 17.3813C3.26745 17.656 2.94702 18.0465 2.7578 18.5033C2.56858 18.9601 2.51907 19.4628 2.61554 19.9477C2.712 20.4327 2.9501 20.8781 3.29973 21.2278C3.64937 21.5774 4.09482 21.8155 4.57978 21.912C5.06473 22.0084 5.56739 21.9589 6.02421 21.7697C6.48103 21.5805 6.87147 21.26 7.14618 20.8489C7.42088 20.4378 7.5675 19.9545 7.5675 19.46C7.5675 18.797 7.30411 18.1611 6.83527 17.6922C6.36643 17.2234 5.73054 16.96 5.0675 16.96ZM5.5 30C5.5 29.5055 5.35338 29.0222 5.07868 28.6111C4.80397 28.2 4.41352 27.8795 3.95671 27.6903C3.49989 27.5011 2.99723 27.4516 2.51228 27.548C2.02732 27.6445 1.58187 27.8826 1.23223 28.2322C0.882603 28.5819 0.644501 29.0273 0.548038 29.5123C0.451575 29.9972 0.501083 30.4999 0.690302 30.9567C0.879521 31.4135 1.19995 31.804 1.61108 32.0787C2.0222 32.3534 2.50555 32.5 3 32.5C3.66304 32.5 4.29893 32.2366 4.76777 31.7678C5.23661 31.2989 5.5 30.663 5.5 30ZM30.5 55C30.0055 55 29.5222 55.1466 29.1111 55.4213C28.7 55.696 28.3795 56.0865 28.1903 56.5433C28.0011 57.0001 27.9516 57.5028 28.048 57.9877C28.1445 58.4727 28.3826 58.9181 28.7322 59.2678C29.0819 59.6174 29.5273 59.8555 30.0123 59.952C30.4972 60.0484 30.9999 59.9989 31.4567 59.8097C31.9135 59.6205 32.304 59.3 32.5787 58.8889C32.8534 58.4778 33 57.9945 33 57.5C33 56.837 32.7366 56.2011 32.2678 55.7322C31.7989 55.2634 31.163 55 30.5 55ZM11.0525 8.0175C10.558 8.0175 10.0747 8.16412 9.66358 8.43883C9.25245 8.71353 8.93202 9.10398 8.7428 9.56079C8.55358 10.0176 8.50408 10.5203 8.60054 11.0052C8.697 11.4902 8.9351 11.9356 9.28473 12.2853C9.63437 12.6349 10.0798 12.873 10.5648 12.9695C11.0497 13.0659 11.5524 13.0164 12.0092 12.8272C12.466 12.638 12.8565 12.3175 13.1312 11.9064C13.4059 11.4953 13.5525 11.012 13.5525 10.5175C13.5525 9.85446 13.2891 9.21857 12.8203 8.74973C12.3514 8.28089 11.7155 8.0175 11.0525 8.0175ZM19.9475 2.1025C19.453 2.1025 18.9697 2.24912 18.5586 2.52383C18.1475 2.79853 17.827 3.18898 17.6378 3.64579C17.4486 4.10261 17.3991 4.60527 17.4955 5.09023C17.592 5.57518 17.8301 6.02064 18.1797 6.37027C18.5294 6.7199 18.9748 6.958 19.4598 7.05446C19.9447 7.15093 20.4474 7.10142 20.9042 6.9122C21.361 6.72298 21.7515 6.40255 22.0262 5.99143C22.3009 5.5803 22.4475 5.09695 22.4475 4.6025C22.4475 3.93946 22.1841 3.30357 21.7153 2.83473C21.2464 2.36589 20.6105 2.1025 19.9475 2.1025ZM5.0675 38.04C4.57305 38.04 4.0897 38.1866 3.67858 38.4613C3.26745 38.736 2.94702 39.1265 2.7578 39.5833C2.56858 40.0401 2.51907 40.5428 2.61554 41.0277C2.712 41.5127 2.9501 41.9581 3.29973 42.3078C3.64937 42.6574 4.09482 42.8955 4.57978 42.992C5.06473 43.0884 5.56739 43.0389 6.02421 42.8497C6.48103 42.6605 6.87147 42.34 7.14618 41.9289C7.42088 41.5178 7.5675 41.0345 7.5675 40.54C7.5675 39.877 7.30411 39.2411 6.83527 38.7722C6.36643 38.3034 5.73054 38.04 5.0675 38.04ZM11.0525 46.9825C10.558 46.9825 10.0747 47.1291 9.66358 47.4038C9.25245 47.6785 8.93202 48.069 8.7428 48.5258C8.55358 48.9826 8.50408 49.4853 8.60054 49.9702C8.697 50.4552 8.9351 50.9006 9.28473 51.2503C9.63437 51.5999 10.0798 51.838 10.5648 51.9345C11.0497 52.0309 11.5524 51.9814 12.0092 51.7922C12.466 51.603 12.8565 51.2825 13.1312 50.8714C13.4059 50.4603 13.5525 49.977 13.5525 49.4825C13.5525 48.8195 13.2891 48.1836 12.8203 47.7147C12.3514 47.2459 11.7155 46.9825 11.0525 46.9825ZM19.9475 52.8975C19.453 52.8975 18.9697 53.0441 18.5586 53.3188C18.1475 53.5935 17.827 53.984 17.6378 54.4408C17.4486 54.8976 17.3991 55.4003 17.4955 55.8852C17.592 56.3702 17.8301 56.8156 18.1797 57.1653C18.5294 57.5149 18.9748 57.753 19.4598 57.8495C19.9447 57.9459 20.4474 57.8964 20.9042 57.7072C21.361 57.518 21.7515 57.1976 22.0262 56.7864C22.3009 56.3753 22.4475 55.892 22.4475 55.3975C22.4475 54.7345 22.1841 54.0986 21.7153 53.6297C21.2464 53.1609 20.6105 52.8975 19.9475 52.8975ZM55.9325 38.04C55.438 38.04 54.9547 38.1866 54.5436 38.4613C54.1325 38.736 53.812 39.1265 53.6228 39.5833C53.4336 40.0401 53.3841 40.5428 53.4805 41.0277C53.577 41.5127 53.8151 41.9581 54.1647 42.3078C54.5144 42.6574 54.9598 42.8955 55.4448 42.992C55.9297 43.0884 56.4324 43.0389 56.8892 42.8497C57.346 42.6605 57.7365 42.34 58.0112 41.9289C58.2859 41.5178 58.4325 41.0345 58.4325 40.54C58.4325 39.877 58.1691 39.2411 57.7003 38.7722C57.2314 38.3034 56.5955 38.04 55.9325 38.04ZM49.9475 46.9825C49.453 46.9825 48.9697 47.1291 48.5586 47.4038C48.1475 47.6785 47.827 48.069 47.6378 48.5258C47.4486 48.9826 47.3991 49.4853 47.4955 49.9702C47.592 50.4552 47.8301 50.9006 48.1797 51.2503C48.5294 51.5999 48.9748 51.838 49.4598 51.9345C49.9447 52.0309 50.4474 51.9814 50.9042 51.7922C51.361 51.603 51.7515 51.2825 52.0262 50.8714C52.3009 50.4603 52.4475 49.977 52.4475 49.4825C52.4475 48.8195 52.1841 48.1836 51.7153 47.7147C51.2464 47.2459 50.6105 46.9825 49.9475 46.9825ZM41.0525 52.8975C40.558 52.8975 40.0747 53.0441 39.6636 53.3188C39.2525 53.5935 38.932 53.984 38.7428 54.4408C38.5536 54.8976 38.5041 55.4003 38.6005 55.8852C38.697 56.3702 38.9351 56.8156 39.2847 57.1653C39.6344 57.5149 40.0798 57.753 40.5648 57.8495C41.0497 57.9459 41.5524 57.8964 42.0092 57.7072C42.466 57.518 42.8565 57.1976 43.1312 56.7864C43.4059 56.3753 43.5525 55.892 43.5525 55.3975C43.5525 54.7345 43.2891 54.0986 42.8203 53.6297C42.3514 53.1609 41.7155 52.8975 41.0525 52.8975Z" fill="#7B04DF"/>
</g>
<defs>
<clipPath id="clip0_159_764">
<rect width="60" height="60" fill="white" transform="translate(0.5)"/>
</clipPath>
</defs>
</svg>
