<svg width="61" height="60" viewBox="0 0 61 60" fill="none" xmlns="http://www.w3.org/2000/svg">
<g clip-path="url(#clip0_159_744)">
<path d="M40.5 27.565V7.5H45.5V22.5C43.1475 23.9975 41.75 25.48 40.5 27.565ZM54.7125 40.67L47.11 39.4025C46.1775 39.2475 45.5 38.4475 45.5 37.5025C45.5 36.125 46.62 35.0025 48 35.0025H53C54.38 35.0025 55.5 36.125 55.5 37.5025H60.5C60.5 33.3675 57.135 30.0025 53 30.0025V25.0025H48V30.0025C43.865 30.0025 40.5 33.3675 40.5 37.5025C40.5 40.9025 42.935 43.7775 46.2875 44.335L53.89 45.6025C54.8225 45.7575 55.5 46.5575 55.5 47.5025C55.5 48.88 54.38 50.0025 53 50.0025H48C46.62 50.0025 45.5 48.88 45.5 47.5025H40.5C40.5 51.6375 43.865 55.0025 48 55.0025V60.0025H53V55.0025C57.135 55.0025 60.5 51.6375 60.5 47.5025C60.5 44.1025 58.065 41.2275 54.7125 40.67ZM15.5 60.0025H20.5V22.5025H15.5V60.0025ZM3 60.0025H8V30.0025H3V60.0025ZM28 60.0025H33V15H28V60.0025ZM58 0H53V20H58V0Z" fill="#7B04DF"/>
</g>
<defs>
<clipPath id="clip0_159_744">
<rect width="60" height="60" fill="white" transform="translate(0.5)"/>
</clipPath>
</defs>
</svg>
